<svg xmlns="http://www.w3.org/2000/svg"  viewBox="0 0 50 50" width="50px" height="50px"><path d="M 15 4 L 15 6 L 19 6 L 19 4 L 15 4 z M 19 6 L 19 9 L 19 10 L 23 10 L 23 15 L 22 15 L 22 17 L 23 17 L 23 19 L 25 19 L 25 17 L 26 17 L 26 15 L 25 15 L 25 10 L 29 10 L 29 11 L 33 11 L 33 9 L 35 9 L 35 6 L 33 6 L 33 8 L 29 8 L 29 6 L 27 6 L 27 8 L 21 8 L 21 6 L 19 6 z M 29 6 L 33 6 L 33 4 L 29 4 L 29 6 z M 33 11 L 33 13 L 35 13 L 35 11 L 33 11 z M 35 13 L 35 24 L 37 24 L 37 13 L 35 13 z M 35 24 L 33 24 L 33 26 L 35 26 L 35 24 z M 35 26 L 35 28 L 37 28 L 37 26 L 35 26 z M 37 28 L 37 30 L 39 30 L 39 28 L 37 28 z M 39 30 L 39 33 L 41 33 L 41 30 L 39 30 z M 39 33 L 36 33 L 36 31 L 34 31 L 34 40 L 36 40 L 36 35 L 39 35 L 39 33 z M 34 40 L 32 40 L 32 44 L 34 44 L 34 40 z M 32 44 L 27 44 L 27 46 L 32 46 L 32 44 z M 27 44 L 27 42 L 27 41 L 25 41 L 25 39 L 27 39 L 27 37 L 21 37 L 21 39 L 23 39 L 23 41 L 21 41 L 21 43 L 21 44 L 23 44 L 23 43 L 25 43 L 25 44 L 27 44 z M 21 44 L 16 44 L 16 46 L 21 46 L 21 44 z M 16 44 L 16 40 L 14 40 L 14 44 L 16 44 z M 14 40 L 14 31 L 12 31 L 12 33 L 9 33 L 9 35 L 12 35 L 12 40 L 14 40 z M 9 33 L 9 30 L 7 30 L 7 33 L 9 33 z M 9 30 L 11 30 L 11 28 L 9 28 L 9 30 z M 11 28 L 13 28 L 13 26 L 11 26 L 11 28 z M 13 26 L 15 26 L 15 24 L 13 24 L 13 26 z M 13 24 L 13 13 L 11 13 L 11 24 L 13 24 z M 13 13 L 15 13 L 15 11 L 13 11 L 13 13 z M 15 11 L 17 11 L 17 9 L 15 9 L 15 11 z M 15 9 L 15 6 L 13 6 L 13 9 L 15 9 z M 14 31 L 16 31 L 16 29 L 14 29 L 14 31 z M 21 37 L 21 35 L 19 35 L 19 37 L 21 37 z M 19 35 L 19 31 L 17 31 L 17 35 L 19 35 z M 19 31 L 21 31 L 21 29 L 19 29 L 19 31 z M 21 29 L 27 29 L 27 27 L 25 27 L 25 23 L 30 23 L 30 22 L 32 22 L 32 20 L 34 20 L 34 18 L 32 18 L 32 19 L 30 19 L 30 21 L 26 21 L 26 20 L 22 20 L 22 22 L 23 22 L 23 27 L 21 27 L 21 29 z M 22 20 L 22 17 L 20 17 L 20 20 L 22 20 z M 20 17 L 20 14 L 17 14 L 17 17 L 20 17 z M 26 20 L 28 20 L 28 17 L 26 17 L 26 20 z M 28 17 L 30 17 L 30 15 L 28 15 L 28 17 z M 30 15 L 32 15 L 32 13 L 30 13 L 30 15 z M 27 29 L 27 31 L 29 31 L 29 29 L 27 29 z M 29 31 L 29 35 L 31 35 L 31 31 L 29 31 z M 29 35 L 27 35 L 27 37 L 29 37 L 29 35 z M 34 31 L 34 29 L 32 29 L 32 31 L 34 31 z M 23 32 L 23 34 L 25 34 L 25 32 L 23 32 z"/></svg>